<svg width="79" height="58" viewBox="0 0 79 58" fill="none" xmlns="http://www.w3.org/2000/svg">
<path opacity="0.4" d="M8.5 49.236L7.76772 49.917L7.77115 49.9207L8.5 49.236ZM8.044 8.956L7.29004 8.29908L7.28956 8.29963L8.044 8.956ZM43.46 9.108L44.2022 8.43784V8.43784L43.46 9.108ZM43.384 49.236L44.1092 49.9246H44.1092L43.384 49.236ZM21.8 47.564L22.6321 47.0093L21.8 47.564ZM33.504 47.64L32.6096 47.1928L32.6062 47.1996L33.504 47.64ZM34.188 22.256L33.2069 22.4499L33.2092 22.4609L34.188 22.256ZM30.16 11.16L29.2962 11.6639L29.3025 11.6745L30.16 11.16ZM18.304 11.084L17.3947 10.6679L17.3915 10.6749L18.304 11.084ZM17.696 37.228L16.7193 37.4424L17.696 37.228ZM25.98 55.76C19.312 55.76 13.75 53.3642 9.22885 48.5513L7.77115 49.9207C12.674 55.1398 18.7653 57.76 25.98 57.76V55.76ZM9.23227 48.555C4.72469 43.7081 2.432 37.3059 2.432 29.248H0.432C0.432 37.7075 2.85131 44.6305 7.76773 49.917L9.23227 48.555ZM2.432 29.248C2.432 20.9632 4.58665 14.4535 8.79844 9.61236L7.28956 8.29963C2.68535 13.5918 0.432 20.6101 0.432 29.248H2.432ZM8.79796 9.61292C13.0469 4.73633 18.7134 2.28 25.904 2.28V0.279998C18.1986 0.279998 11.9585 2.941 7.29004 8.29908L8.79796 9.61292ZM25.904 2.28C32.6113 2.28 38.1942 4.76814 42.7178 9.77815L44.2022 8.43784C39.3018 3.01053 33.1807 0.279998 25.904 0.279998V2.28ZM42.7178 9.77815C47.2355 14.7816 49.528 21.2671 49.528 29.324H51.528C51.528 20.8636 49.1085 13.8717 44.2022 8.43784L42.7178 9.77815ZM49.528 29.324C49.528 37.3793 47.2117 43.7524 42.6588 48.5474L44.1092 49.9246C49.0816 44.6876 51.528 37.786 51.528 29.324H49.528ZM42.6588 48.5474C38.0826 53.3671 32.5423 55.76 25.98 55.76V57.76C33.0977 57.76 39.1601 55.1369 44.1092 49.9246L42.6588 48.5474ZM20.968 48.1187C22.8947 51.0089 25.2413 52.668 28.032 52.668V50.668C26.1614 50.668 24.3533 49.5911 22.6321 47.0093L20.968 48.1187ZM28.032 52.668C30.8578 52.668 32.9731 50.9928 34.4018 48.0804L32.6062 47.1996C31.4002 49.6579 29.8675 50.668 28.032 50.668V52.668ZM34.3984 48.0872C35.8696 45.145 36.556 40.9324 36.556 35.556H34.556C34.556 40.8196 33.8744 44.663 32.6096 47.1928L34.3984 48.0872ZM36.556 35.556C36.556 30.9787 36.0931 26.4767 35.1668 22.0511L33.2092 22.4609C34.1069 26.75 34.556 31.1146 34.556 35.556H36.556ZM35.169 22.0621C34.2907 17.619 32.9137 13.8059 31.0175 10.6455L29.3025 11.6745C31.0543 14.5941 32.3626 18.1783 33.207 22.4499L35.169 22.0621ZM31.0238 10.6561C29.1701 7.47847 26.8505 5.6 24.004 5.6V7.6C25.8188 7.6 27.6032 8.76153 29.2962 11.6639L31.0238 10.6561ZM24.004 5.6C21.0406 5.6 18.8577 7.47083 17.3947 10.6679L19.2133 11.5001C20.4863 8.7185 22.1034 7.6 24.004 7.6V5.6ZM17.3915 10.6749C15.9875 13.807 15.328 18.3334 15.328 24.156H17.328C17.328 18.4266 17.9859 14.2383 19.2165 11.4931L17.3915 10.6749ZM15.328 24.156C15.328 28.783 15.7907 33.2125 16.7193 37.4424L18.6727 37.0136C17.7773 32.9342 17.328 28.649 17.328 24.156H15.328ZM16.7193 37.4424C17.6505 41.6846 19.058 45.2538 20.968 48.1187L22.6321 47.0093C20.894 44.4022 19.5655 41.0808 18.6727 37.0136L16.7193 37.4424ZM56.3206 52.352L55.6383 51.6209L55.6257 51.6327L55.6135 51.6449L56.3206 52.352ZM58.5246 49.92L57.7564 49.2798L57.7456 49.2928L57.7353 49.3061L58.5246 49.92ZM58.8286 14.124L58.0652 14.7699L58.0781 14.7851L58.0915 14.7997L58.8286 14.124ZM56.9286 12.832L56.6345 13.7878L56.6442 13.7907L56.6539 13.7935L56.9286 12.832ZM55.1046 11.996L54.5165 12.8047L54.5416 12.823L54.5677 12.8397L55.1046 11.996ZM56.5486 7.664L56.1533 6.74545L56.1394 6.75143L56.1257 6.75781L56.5486 7.664ZM68.5566 2.496L68.2109 1.55765L68.1858 1.56689L68.1613 1.57745L68.5566 2.496ZM73.1166 2.268L72.6694 3.16243L72.6934 3.1744L72.7179 3.18507L73.1166 2.268ZM74.0286 7.512L74.9377 7.92865L74.0286 7.512ZM74.3326 49.92L73.5644 50.5602L73.5746 50.5724L73.5852 50.5844L74.3326 49.92ZM76.6886 52.352L76.0063 53.0831L76.6886 52.352ZM57.0806 55C56.5777 55 56.3851 54.896 56.3333 54.855C56.3261 54.8492 56.2566 54.813 56.2566 54.556H54.2566C54.2566 55.2617 54.4912 55.9474 55.0919 56.423C55.6481 56.8634 56.3676 57 57.0806 57V55ZM56.2566 54.556V54.252H54.2566V54.556H56.2566ZM56.2566 54.252C56.2566 54.1053 56.3689 53.7179 57.0277 53.0591L55.6135 51.6449C54.8536 52.4048 54.2566 53.284 54.2566 54.252H56.2566ZM57.0029 53.0831C57.8057 52.3338 58.5757 51.4832 59.314 50.5339L57.7353 49.3061C57.0549 50.1808 56.3556 50.9515 55.6383 51.6209L57.0029 53.0831ZM59.2928 50.5602C60.1841 49.4906 60.6646 48.2812 60.6646 46.956H58.6646C58.6646 47.7588 58.3851 48.5254 57.7564 49.2798L59.2928 50.5602ZM60.6646 46.956V16.708H58.6646V46.956H60.6646ZM60.6646 16.708C60.6646 15.4324 60.3441 14.2973 59.5658 13.4483L58.0915 14.7997C58.4278 15.1667 58.6646 15.7543 58.6646 16.708H60.6646ZM59.592 13.4781C58.9289 12.6944 58.1338 12.1363 57.2033 11.8705L56.6539 13.7935C57.1421 13.933 57.6137 14.2363 58.0652 14.7699L59.592 13.4781ZM57.2227 11.8762C56.6459 11.6987 56.1201 11.4569 55.6415 11.1523L54.5677 12.8397C55.2038 13.2444 55.894 13.5599 56.6345 13.7878L57.2227 11.8762ZM55.6928 11.1873C55.3545 10.9412 55.2686 10.7179 55.2686 10.476H53.2686C53.2686 11.4501 53.7401 12.2401 54.5165 12.8047L55.6928 11.1873ZM55.2686 10.476V10.096H53.2686V10.476H55.2686ZM55.2686 10.096C55.2686 9.82211 55.4998 9.257 56.9715 8.57018L56.1257 6.75781C54.5575 7.48966 53.2686 8.54588 53.2686 10.096H55.2686ZM56.9439 8.58254L68.952 3.41454L68.1613 1.57745L56.1533 6.74545L56.9439 8.58254ZM68.9023 3.43434C70.7293 2.76123 71.9216 2.78851 72.6694 3.16243L73.5638 1.37357C72.0823 0.632816 70.2346 0.812093 68.2109 1.55765L68.9023 3.43434ZM72.7179 3.18507C73.1797 3.38585 73.4545 3.61554 73.6156 3.83963C73.7706 4.0553 73.8646 4.32658 73.8646 4.7H75.8646C75.8646 3.95875 75.6673 3.26737 75.2396 2.67236C74.818 2.08579 74.2189 1.65682 73.5154 1.35093L72.7179 3.18507ZM73.8646 4.7C73.8646 5.13099 73.6662 5.90264 73.1196 7.09534L74.9377 7.92865C75.5057 6.68936 75.8646 5.58634 75.8646 4.7H73.8646ZM73.1196 7.09534C72.491 8.46679 72.1926 10.0328 72.1926 11.768H74.1926C74.1926 10.2606 74.4516 8.98921 74.9377 7.92865L73.1196 7.09534ZM72.1926 11.768V46.956H74.1926V11.768H72.1926ZM72.1926 46.956C72.1926 48.2812 72.6731 49.4906 73.5644 50.5602L75.1008 49.2798C74.4721 48.5254 74.1926 47.7588 74.1926 46.956H72.1926ZM73.5852 50.5844C74.4131 51.5157 75.2201 52.3493 76.0063 53.0831L77.3709 51.6209C76.6372 50.9361 75.8735 50.1483 75.08 49.2556L73.5852 50.5844ZM76.0063 53.0831C76.7228 53.7517 76.8286 54.1326 76.8286 54.252H78.8286C78.8286 53.2568 78.1745 52.3709 77.3709 51.6209L76.0063 53.0831ZM76.8286 54.252V54.556H78.8286V54.252H76.8286ZM76.8286 54.556C76.8286 54.813 76.7592 54.8492 76.7519 54.855C76.7001 54.896 76.5076 55 76.0046 55V57C76.7177 57 77.4371 56.8634 77.9933 56.423C78.5941 55.9474 78.8286 55.2617 78.8286 54.556H76.8286ZM76.0046 55H57.0806V57H76.0046V55Z" fill="#CC6633"/>
</svg>
