<svg width="100" height="58" viewBox="0 0 100 58" fill="none" xmlns="http://www.w3.org/2000/svg">
<path opacity="0.4" d="M8.5 49.236L7.76772 49.917L7.77115 49.9207L8.5 49.236ZM8.044 8.956L7.29004 8.29908L7.28956 8.29963L8.044 8.956ZM43.46 9.108L44.2022 8.43784V8.43784L43.46 9.108ZM43.384 49.236L44.1092 49.9246H44.1092L43.384 49.236ZM21.8 47.564L22.6321 47.0093L21.8 47.564ZM33.504 47.64L32.6096 47.1928L32.6062 47.1996L33.504 47.64ZM34.188 22.256L33.2069 22.4499L33.2092 22.4609L34.188 22.256ZM30.16 11.16L29.2962 11.6639L29.3025 11.6745L30.16 11.16ZM18.304 11.084L17.3947 10.6679L17.3915 10.6749L18.304 11.084ZM17.696 37.228L16.7193 37.4424L17.696 37.228ZM25.98 55.76C19.312 55.76 13.75 53.3642 9.22885 48.5513L7.77115 49.9207C12.674 55.1398 18.7653 57.76 25.98 57.76V55.76ZM9.23227 48.555C4.72469 43.7081 2.432 37.3059 2.432 29.248H0.432C0.432 37.7075 2.85131 44.6305 7.76773 49.917L9.23227 48.555ZM2.432 29.248C2.432 20.9632 4.58665 14.4535 8.79844 9.61236L7.28956 8.29963C2.68535 13.5918 0.432 20.6101 0.432 29.248H2.432ZM8.79796 9.61292C13.0469 4.73633 18.7134 2.28 25.904 2.28V0.279998C18.1986 0.279998 11.9585 2.941 7.29004 8.29908L8.79796 9.61292ZM25.904 2.28C32.6113 2.28 38.1942 4.76814 42.7178 9.77815L44.2022 8.43784C39.3018 3.01053 33.1807 0.279998 25.904 0.279998V2.28ZM42.7178 9.77815C47.2355 14.7816 49.528 21.2671 49.528 29.324H51.528C51.528 20.8636 49.1085 13.8717 44.2022 8.43784L42.7178 9.77815ZM49.528 29.324C49.528 37.3793 47.2117 43.7524 42.6588 48.5474L44.1092 49.9246C49.0816 44.6876 51.528 37.786 51.528 29.324H49.528ZM42.6588 48.5474C38.0826 53.3671 32.5423 55.76 25.98 55.76V57.76C33.0977 57.76 39.1601 55.1369 44.1092 49.9246L42.6588 48.5474ZM20.968 48.1187C22.8947 51.0089 25.2413 52.668 28.032 52.668V50.668C26.1614 50.668 24.3533 49.5911 22.6321 47.0093L20.968 48.1187ZM28.032 52.668C30.8578 52.668 32.9731 50.9928 34.4018 48.0804L32.6062 47.1996C31.4002 49.6579 29.8675 50.668 28.032 50.668V52.668ZM34.3984 48.0872C35.8696 45.145 36.556 40.9324 36.556 35.556H34.556C34.556 40.8196 33.8744 44.663 32.6096 47.1928L34.3984 48.0872ZM36.556 35.556C36.556 30.9787 36.0931 26.4767 35.1668 22.0511L33.2092 22.4609C34.1069 26.75 34.556 31.1146 34.556 35.556H36.556ZM35.169 22.0621C34.2907 17.619 32.9137 13.8059 31.0175 10.6455L29.3025 11.6745C31.0543 14.5941 32.3626 18.1783 33.207 22.4499L35.169 22.0621ZM31.0238 10.6561C29.1701 7.47847 26.8505 5.6 24.004 5.6V7.6C25.8188 7.6 27.6032 8.76153 29.2962 11.6639L31.0238 10.6561ZM24.004 5.6C21.0406 5.6 18.8577 7.47083 17.3947 10.6679L19.2133 11.5001C20.4863 8.7185 22.1034 7.6 24.004 7.6V5.6ZM17.3915 10.6749C15.9875 13.807 15.328 18.3334 15.328 24.156H17.328C17.328 18.4266 17.9859 14.2383 19.2165 11.4931L17.3915 10.6749ZM15.328 24.156C15.328 28.783 15.7907 33.2125 16.7193 37.4424L18.6727 37.0136C17.7773 32.9342 17.328 28.649 17.328 24.156H15.328ZM16.7193 37.4424C17.6505 41.6846 19.058 45.2538 20.968 48.1187L22.6321 47.0093C20.894 44.4022 19.5655 41.0808 18.6727 37.0136L16.7193 37.4424ZM97.9508 41.028L97.1371 41.6092L97.1628 41.6452L97.1916 41.6788L97.9508 41.028ZM98.2548 42.32L99.2344 42.5209L99.2354 42.5161L98.2548 42.32ZM95.8228 54.176L96.793 54.4185L96.7981 54.3978L96.8024 54.3769L95.8228 54.176ZM55.6948 55.468L55.0363 56.2206L55.6948 55.468ZM57.7468 44.372L56.8972 43.8446L56.8946 43.8487L57.7468 44.372ZM64.2828 36.392L63.6051 35.6566L63.5979 35.6634L64.2828 36.392ZM71.9588 29.476L72.6195 30.2268L72.6278 30.2193L71.9588 29.476ZM78.4188 22.332L77.6073 21.7477L77.6051 21.7508L78.4188 22.332ZM79.4828 8.88L78.6673 9.45875L78.6718 9.46509L78.6764 9.47136L79.4828 8.88ZM72.6428 8.044L71.8428 7.444L72.6428 8.044ZM70.7428 11.692L71.6846 12.0283L70.7428 11.692ZM69.0708 15.948L69.99 16.3419L69.0708 15.948ZM66.4108 19.596L65.7546 18.8414L66.4108 19.596ZM57.3668 19.444L56.6898 20.1799L56.6979 20.1874L56.7062 20.1947L57.3668 19.444ZM61.3188 5.232L61.871 6.06571L61.8735 6.06405L61.3188 5.232ZM90.4268 4.928L89.8667 5.75646L89.8721 5.76005L90.4268 4.928ZM93.3908 24.232L94.2149 24.7986L94.2203 24.7906L93.3908 24.232ZM87.0828 30.54L86.5093 29.7207L86.5016 29.7263L87.0828 30.54ZM79.4068 35.556L78.8947 34.697L78.8874 34.7015L79.4068 35.556ZM72.1868 40.724L71.5432 39.9586L72.1868 40.724ZM67.7788 46.348L66.8435 45.9941L66.3312 47.348H67.7788V46.348ZM90.7308 45.436L90.1968 44.5905L90.7308 45.436ZM92.7828 43.46L91.9253 42.9455L91.9199 42.9546L91.9146 42.9639L92.7828 43.46ZM94.2268 41.408L94.995 42.0482L94.2268 41.408ZM96.7348 41.496C97.0692 41.496 97.1229 41.5893 97.1371 41.6092L98.7645 40.4468C98.2721 39.7573 97.5151 39.496 96.7348 39.496V41.496ZM97.1916 41.6788C97.2725 41.7732 97.3226 41.882 97.2742 42.1239L99.2354 42.5161C99.3897 41.7447 99.2371 40.9921 98.7101 40.3772L97.1916 41.6788ZM97.2752 42.1191L94.8432 53.9751L96.8024 54.3769L99.2344 42.5209L97.2752 42.1191ZM94.8527 53.9335C94.7278 54.4331 94.5619 54.6933 94.4273 54.8226C94.3156 54.9298 94.1732 55 93.9228 55V57C94.6351 57 95.2907 56.7662 95.8123 56.2654C96.311 55.7867 96.6139 55.1349 96.793 54.4185L94.8527 53.9335ZM93.9228 55H57.1388V57H93.9228V55ZM57.1388 55C56.8145 55 56.5695 54.9046 56.3533 54.7154L55.0363 56.2206C55.6308 56.7407 56.3485 57 57.1388 57V55ZM56.3533 54.7154C56.1495 54.5371 56.0868 54.3743 56.0868 54.176H54.0868C54.0868 54.991 54.4295 55.6896 55.0363 56.2206L56.3533 54.7154ZM56.0868 54.176V53.188H54.0868V54.176H56.0868ZM56.0868 53.188C56.0868 50.4071 56.9091 47.6474 58.599 44.8953L56.8946 43.8487C55.0379 46.8726 54.0868 49.9902 54.0868 53.188H56.0868ZM58.5965 44.8994C60.3743 42.0351 62.4975 39.4426 64.9677 37.1206L63.5979 35.6634C61.0015 38.104 58.7673 40.8316 56.8972 43.8446L58.5965 44.8994ZM64.9605 37.1274C67.5391 34.751 70.0921 32.4508 72.6194 30.2267L71.2982 28.7253C68.7589 30.9599 66.1945 33.2703 63.6051 35.6566L64.9605 37.1274ZM72.6278 30.2193C75.2089 27.8963 77.4124 25.4614 79.2326 22.9132L77.6051 21.7508C75.8786 24.1679 73.7754 26.4957 71.2898 28.7327L72.6278 30.2193ZM79.2303 22.9163C81.139 20.2654 82.1548 17.6077 82.1548 14.96H80.1548C80.1548 17.075 79.3466 19.3319 77.6073 21.7477L79.2303 22.9163ZM82.1548 14.96C82.1548 12.2862 81.5666 10.0305 80.2892 8.28864L78.6764 9.47136C79.6284 10.7695 80.1548 12.5671 80.1548 14.96H82.1548ZM80.2983 8.30125C79.044 6.53375 77.4242 5.524 75.4548 5.524V7.524C76.6268 7.524 77.6923 8.08492 78.6673 9.45875L80.2983 8.30125ZM75.4548 5.524C73.9794 5.524 72.7622 6.21811 71.8428 7.444L73.4428 8.644C74.0434 7.84322 74.7009 7.524 75.4548 7.524V5.524ZM71.8428 7.444C71.0125 8.55112 70.3353 9.85983 69.8011 11.3557L71.6846 12.0283C72.1637 10.6868 72.7532 9.56355 73.4428 8.644L71.8428 7.444ZM69.8011 11.3557C69.3015 12.7544 68.7517 14.1539 68.1517 15.5541L69.99 16.3419C70.6059 14.9048 71.1708 13.4669 71.6846 12.0283L69.8011 11.3557ZM68.1517 15.5541C67.6031 16.8342 66.8063 17.9269 65.7546 18.8414L67.067 20.3506C68.346 19.2384 69.3226 17.8992 69.99 16.3419L68.1517 15.5541ZM65.7546 18.8414C64.7869 19.6829 63.6072 20.116 62.1548 20.116V22.116C64.0464 22.116 65.704 21.5358 67.067 20.3506L65.7546 18.8414ZM62.1548 20.116C60.4361 20.116 59.0858 19.6247 58.0274 18.6933L56.7062 20.1947C58.1811 21.4927 60.0229 22.116 62.1548 22.116V20.116ZM58.0439 18.7081C57.0143 17.7609 56.4668 16.4739 56.4668 14.732H54.4668C54.4668 16.9421 55.186 18.7965 56.6898 20.1799L58.0439 18.7081ZM56.4668 14.732C56.4668 11.4027 58.1705 8.51667 61.871 6.06571L60.7666 4.39828C56.6644 7.11533 54.4668 10.5626 54.4668 14.732H56.4668ZM61.8735 6.06405C65.6329 3.55777 70.2192 2.28 75.6828 2.28V0.279998C69.8984 0.279998 64.9087 1.63689 60.7641 4.39995L61.8735 6.06405ZM75.6828 2.28C81.7982 2.28 86.4923 3.47513 89.8667 5.75644L90.9869 4.09955C87.1667 1.51687 82.0314 0.279998 75.6828 0.279998V2.28ZM89.8721 5.76005C93.192 7.97331 94.8988 11.4042 94.8988 16.252H96.8988C96.8988 10.8651 94.9576 6.74668 90.9815 4.09595L89.8721 5.76005ZM94.8988 16.252C94.8988 18.8791 94.1286 21.3462 92.5614 23.6734L94.2203 24.7906C95.997 22.1524 96.8988 19.2996 96.8988 16.252H94.8988ZM92.5668 23.6655C90.9657 25.9943 88.9495 28.0127 86.5094 29.7208L87.6563 31.3592C90.2828 29.5206 92.4719 27.3337 94.2149 24.7985L92.5668 23.6655ZM86.5016 29.7263C84.0415 31.4835 81.5059 33.1404 78.8948 34.6971L79.9189 36.4149C82.5771 34.8302 85.1588 33.1432 87.6641 31.3537L86.5016 29.7263ZM78.8874 34.7015C76.2614 36.2976 73.8131 38.0499 71.5432 39.9586L72.8304 41.4894C75.0192 39.6488 77.3842 37.9557 79.9262 36.4105L78.8874 34.7015ZM71.5432 39.9586C69.2385 41.8967 67.6346 43.9034 66.8435 45.9941L68.7141 46.7019C69.3417 45.0433 70.6765 43.3006 72.8304 41.4894L71.5432 39.9586ZM67.7788 47.348H87.3108V45.348H67.7788V47.348ZM87.3108 47.348C88.7869 47.348 90.1185 47.0055 91.2648 46.2815L90.1968 44.5905C89.4178 45.0825 88.4694 45.348 87.3108 45.348V47.348ZM91.2648 46.2815C92.3143 45.6186 93.1389 44.8523 93.6511 43.9561L91.9146 42.9639C91.616 43.4863 91.0726 44.0374 90.1968 44.5905L91.2648 46.2815ZM93.6403 43.9745C94.0729 43.2535 94.525 42.6123 94.995 42.0482L93.4586 40.7678C92.9153 41.4197 92.4047 42.1465 91.9253 42.9455L93.6403 43.9745ZM94.995 42.0482C95.4186 41.5399 95.671 41.496 95.7468 41.496V39.496C94.8093 39.496 94.0484 40.0601 93.4586 40.7678L94.995 42.0482ZM95.7468 41.496H96.7348V39.496H95.7468V41.496Z" fill="#CC6633"/>
</svg>
