<svg width="97" height="58" viewBox="0 0 97 58" fill="none" xmlns="http://www.w3.org/2000/svg">
<path opacity="0.4" d="M8.5 49.236L7.76772 49.917L7.77115 49.9207L8.5 49.236ZM8.044 8.956L7.29004 8.29908L7.28956 8.29963L8.044 8.956ZM43.46 9.108L44.2022 8.43784V8.43784L43.46 9.108ZM43.384 49.236L44.1092 49.9246H44.1092L43.384 49.236ZM21.8 47.564L22.6321 47.0093L21.8 47.564ZM33.504 47.64L32.6096 47.1928L32.6062 47.1996L33.504 47.64ZM34.188 22.256L33.2069 22.4499L33.2092 22.4609L34.188 22.256ZM30.16 11.16L29.2962 11.6639L29.3025 11.6745L30.16 11.16ZM18.304 11.084L17.3947 10.6679L17.3915 10.6749L18.304 11.084ZM17.696 37.228L16.7193 37.4424L17.696 37.228ZM25.98 55.76C19.312 55.76 13.75 53.3642 9.22885 48.5513L7.77115 49.9207C12.674 55.1398 18.7653 57.76 25.98 57.76V55.76ZM9.23227 48.555C4.72469 43.7081 2.432 37.3059 2.432 29.248H0.432C0.432 37.7075 2.85131 44.6305 7.76773 49.917L9.23227 48.555ZM2.432 29.248C2.432 20.9632 4.58665 14.4535 8.79844 9.61236L7.28956 8.29963C2.68535 13.5918 0.432 20.6101 0.432 29.248H2.432ZM8.79796 9.61292C13.0469 4.73633 18.7134 2.28 25.904 2.28V0.279998C18.1986 0.279998 11.9585 2.941 7.29004 8.29908L8.79796 9.61292ZM25.904 2.28C32.6113 2.28 38.1942 4.76814 42.7178 9.77815L44.2022 8.43784C39.3018 3.01053 33.1807 0.279998 25.904 0.279998V2.28ZM42.7178 9.77815C47.2355 14.7816 49.528 21.2671 49.528 29.324H51.528C51.528 20.8636 49.1085 13.8717 44.2022 8.43784L42.7178 9.77815ZM49.528 29.324C49.528 37.3793 47.2117 43.7524 42.6588 48.5474L44.1092 49.9246C49.0816 44.6876 51.528 37.786 51.528 29.324H49.528ZM42.6588 48.5474C38.0826 53.3671 32.5423 55.76 25.98 55.76V57.76C33.0977 57.76 39.1601 55.1369 44.1092 49.9246L42.6588 48.5474ZM20.968 48.1187C22.8947 51.0089 25.2413 52.668 28.032 52.668V50.668C26.1614 50.668 24.3533 49.5911 22.6321 47.0093L20.968 48.1187ZM28.032 52.668C30.8578 52.668 32.9731 50.9928 34.4018 48.0804L32.6062 47.1996C31.4002 49.6579 29.8675 50.668 28.032 50.668V52.668ZM34.3984 48.0872C35.8696 45.145 36.556 40.9324 36.556 35.556H34.556C34.556 40.8196 33.8744 44.663 32.6096 47.1928L34.3984 48.0872ZM36.556 35.556C36.556 30.9787 36.0931 26.4767 35.1668 22.0511L33.2092 22.4609C34.1069 26.75 34.556 31.1146 34.556 35.556H36.556ZM35.169 22.0621C34.2907 17.619 32.9137 13.8059 31.0175 10.6455L29.3025 11.6745C31.0543 14.5941 32.3626 18.1783 33.207 22.4499L35.169 22.0621ZM31.0238 10.6561C29.1701 7.47847 26.8505 5.6 24.004 5.6V7.6C25.8188 7.6 27.6032 8.76153 29.2962 11.6639L31.0238 10.6561ZM24.004 5.6C21.0406 5.6 18.8577 7.47083 17.3947 10.6679L19.2133 11.5001C20.4863 8.7185 22.1034 7.6 24.004 7.6V5.6ZM17.3915 10.6749C15.9875 13.807 15.328 18.3334 15.328 24.156H17.328C17.328 18.4266 17.9859 14.2383 19.2165 11.4931L17.3915 10.6749ZM15.328 24.156C15.328 28.783 15.7907 33.2125 16.7193 37.4424L18.6727 37.0136C17.7773 32.9342 17.328 28.649 17.328 24.156H15.328ZM16.7193 37.4424C17.6505 41.6846 19.058 45.2538 20.968 48.1187L22.6321 47.0093C20.894 44.4022 19.5655 41.0808 18.6727 37.0136L16.7193 37.4424ZM79.4864 23.7L78.7217 23.0556L77.4062 24.6168L79.446 24.6992L79.4864 23.7ZM91.4184 28.412L90.7112 29.1191L90.7174 29.1252L91.4184 28.412ZM89.9744 51.744L89.3236 50.9847L89.3187 50.989L89.9744 51.744ZM59.8024 53.416L59.2591 54.2556L59.2647 54.2592L59.8024 53.416ZM56.1544 40.648L55.3887 40.0048L55.3862 40.0078L56.1544 40.648ZM65.1224 40.8L64.3886 41.4794L64.395 41.4863L64.4015 41.4931L65.1224 40.8ZM67.9344 45.132L67.0018 45.493L67.0068 45.5059L67.0122 45.5187L67.9344 45.132ZM70.5944 49.54L69.8191 50.1717L69.8319 50.1874L69.8454 50.2026L70.5944 49.54ZM79.4104 48.552L78.5624 48.022L78.5587 48.0279L79.4104 48.552ZM79.3344 33.808L80.1451 33.2225L79.3344 33.808ZM69.8344 29.552L68.8999 29.908L68.9104 29.9355L68.9225 29.9624L69.8344 29.552ZM70.3664 26.36L69.567 25.7592L69.5597 25.7689L69.5526 25.7788L70.3664 26.36ZM79.7904 13.82L80.5898 14.4208L81.7928 12.82H79.7904V13.82ZM56.7624 13.136L56.0553 13.8431L56.0739 13.8617L56.0934 13.8793L56.7624 13.136ZM93.5464 2.572L92.8393 3.2791L92.8664 3.30626L92.8956 3.33126L93.5464 2.572ZM92.1024 8.728L92.8671 9.37237L92.8686 9.37061L92.1024 8.728ZM79.446 24.6992C84.266 24.8939 87.9857 26.3936 90.7113 29.1191L92.1255 27.7049C88.9737 24.5531 84.7387 22.9114 79.5267 22.7008L79.446 24.6992ZM90.7174 29.1252C93.4412 31.802 94.8264 35.2826 94.8264 39.66H96.8264C96.8264 34.8161 95.2729 30.798 92.1193 27.6988L90.7174 29.1252ZM94.8264 39.66C94.8264 44.0515 93.0259 47.8113 89.3236 50.9847L90.6252 52.5033C94.7255 48.9887 96.8264 44.6925 96.8264 39.66H94.8264ZM89.3187 50.989C85.6851 54.1445 80.9431 55.76 75.0024 55.76V57.76C81.323 57.76 86.5623 56.0315 90.6301 52.499L89.3187 50.989ZM75.0024 55.76C68.4514 55.76 63.6058 54.6553 60.34 52.5728L59.2647 54.2592C62.991 56.6353 68.2787 57.76 75.0024 57.76V55.76ZM60.3456 52.5764C57.0745 50.4598 55.6344 48.0993 55.6344 45.512H53.6344C53.6344 49.0047 55.6395 51.9135 59.2591 54.2556L60.3456 52.5764ZM55.6344 45.512C55.6344 43.6523 56.0969 42.279 56.9226 41.2882L55.3862 40.0078C54.1852 41.449 53.6344 43.3183 53.6344 45.512H55.6344ZM56.9201 41.2912C57.7674 40.2825 58.939 39.748 60.5624 39.748V37.748C58.4364 37.748 56.6693 38.4802 55.3887 40.0048L56.9201 41.2912ZM60.5624 39.748C62.0414 39.748 63.3003 40.304 64.3886 41.4794L65.8561 40.1206C64.4112 38.56 62.63 37.748 60.5624 37.748V39.748ZM64.4015 41.4931C65.5842 42.7231 66.4456 44.0562 67.0018 45.493L68.8669 44.771C68.2071 43.0665 67.1939 41.5116 65.8432 40.1069L64.4015 41.4931ZM67.0122 45.5187C67.7092 47.1808 68.6462 48.7322 69.8191 50.1717L71.3696 48.9083C70.3132 47.6118 69.4769 46.2245 68.8566 44.7453L67.0122 45.5187ZM69.8454 50.2026C71.1676 51.6972 72.7697 52.516 74.6224 52.516V50.516C73.4351 50.516 72.3518 50.0174 71.3434 48.8774L69.8454 50.2026ZM74.6224 52.516C77.0112 52.516 78.9013 51.2873 80.262 49.0761L78.5587 48.0279C77.4875 49.7687 76.1855 50.516 74.6224 50.516V52.516ZM80.2584 49.082C81.6433 46.8661 82.3104 44.2161 82.3104 41.18H80.3104C80.3104 43.9199 79.7108 46.1846 78.5624 48.022L80.2584 49.082ZM82.3104 41.18C82.3104 37.956 81.6239 35.2701 80.1451 33.2225L78.5237 34.3935C79.6795 35.9939 80.3104 38.2227 80.3104 41.18H82.3104ZM80.1451 33.2225C78.6319 31.1274 76.5005 30.072 73.8624 30.072V32.072C75.8855 32.072 77.4022 32.8406 78.5237 34.3935L80.1451 33.2225ZM73.8624 30.072H72.3424V32.072H73.8624V30.072ZM72.3424 30.072C71.8728 30.072 71.5494 29.9748 71.3217 29.8368C71.0999 29.7024 70.9029 29.4897 70.7463 29.1416L68.9225 29.9624C69.2218 30.6276 69.6708 31.1749 70.2851 31.5472C70.8933 31.9158 71.5959 32.072 72.3424 32.072V30.072ZM70.7689 29.196C70.502 28.4954 70.5811 27.7799 71.1801 26.9412L69.5526 25.7788C68.6317 27.0681 68.3561 28.4806 68.8999 29.908L70.7689 29.196ZM71.1658 26.9608L80.5898 14.4208L78.991 13.2192L69.567 25.7592L71.1658 26.9608ZM79.7904 12.82H58.6624V14.82H79.7904V12.82ZM58.6624 12.82C58.1188 12.82 57.7328 12.6641 57.4313 12.3927L56.0934 13.8793C56.8052 14.5199 57.6859 14.82 58.6624 14.82V12.82ZM57.4695 12.4289C57.2342 12.1936 57.0784 11.8577 57.0784 11.312H55.0784C55.0784 12.2863 55.3785 13.1664 56.0553 13.8431L57.4695 12.4289ZM57.0784 11.312V4.396H55.0784V11.312H57.0784ZM57.0784 4.396C57.0784 3.78136 57.239 3.49978 57.3901 3.35785C57.5529 3.20487 57.8895 3.04 58.5864 3.04V1.04C57.6113 1.04 56.6939 1.26779 56.0207 1.90015C55.3358 2.54355 55.0784 3.43997 55.0784 4.396H57.0784ZM58.5864 3.04H92.1024V1.04H58.5864V3.04ZM92.1024 3.04C92.5052 3.04 92.7107 3.15054 92.8393 3.2791L94.2535 1.8649C93.6727 1.28412 92.9156 1.04 92.1024 1.04V3.04ZM92.8956 3.33126C93.0082 3.4278 93.0784 3.5453 93.0784 3.788H95.0784C95.0784 3.01737 94.7939 2.32419 94.1972 1.81274L92.8956 3.33126ZM93.0784 3.788V5.004H95.0784V3.788H93.0784ZM93.0784 5.004C93.0784 5.23162 92.9915 5.60294 92.701 6.15028C92.4157 6.68792 91.9683 7.33166 91.3362 8.08538L92.8686 9.37061C93.5537 8.55366 94.0943 7.79141 94.4677 7.08771C94.836 6.39372 95.0784 5.68838 95.0784 5.004H93.0784ZM91.3377 8.08362L78.7217 23.0556L80.2511 24.3444L92.8671 9.37237L91.3377 8.08362Z" fill="#CC6633"/>
</svg>
