<svg width="88" height="67" viewBox="0 0 88 67" fill="none" xmlns="http://www.w3.org/2000/svg">
<path d="M16.4135 51.637C16.2416 50.7186 16.3197 47.7919 16.3197 47.7919C16.3197 47.7919 16.1947 46.2196 15.6163 44.8185C15.4756 44.476 15.2255 43.8689 15.5225 43.5576C15.757 43.3085 16.1947 43.3707 16.4448 43.5576C16.7262 43.7599 16.945 44.0713 17.117 44.3671C17.414 44.8808 17.5547 45.4568 17.6328 46.0483C17.711 46.6243 17.9455 47.4338 18.5551 47.6518C18.774 47.7296 19.0241 47.6829 19.2273 47.5895C19.8682 47.3093 20.0714 46.7022 20.4153 46.1729C20.7279 45.6747 21.1813 45.2544 21.4783 44.7562C21.7909 44.227 22.0879 43.6821 22.4006 43.1528C22.6976 42.6547 22.9008 42.0942 23.2447 41.6428C23.4948 41.3159 23.9012 40.9422 24.3233 41.2069C24.7766 41.4871 24.589 42.0631 24.3858 42.4367C24.0575 43.0594 23.7136 43.6665 23.3854 44.2892C23.1353 44.7562 22.9164 45.2388 22.6194 45.6747C22.4631 45.9082 22.1192 46.204 22.3068 46.4998C22.3537 46.5776 22.4475 46.6243 22.5256 46.6088C22.6038 46.5932 22.6507 46.5465 22.6976 46.4998C22.9477 46.2352 23.1196 45.9082 23.3385 45.6125C23.5573 45.3167 23.8074 45.0365 24.0575 44.7718C24.5421 44.2425 25.0736 43.7288 25.5113 43.1684C25.5738 43.0905 25.6364 43.0127 25.6833 42.9193C25.652 42.8726 25.6364 42.8103 25.6051 42.7481C25.4332 42.2966 25.4019 41.7984 25.3394 41.3314C25.2768 40.8488 25.183 40.4129 24.9955 39.9615C24.6516 39.1364 24.2764 38.2646 23.6355 37.642C23.1665 37.1749 22.635 36.6923 22.3224 36.1163C22.2286 35.9607 22.1192 35.7427 22.1817 35.5404C22.2911 35.1823 22.7288 35.1667 23.0102 35.3224C23.3854 35.5559 23.6511 35.9451 23.9169 36.272C24.5109 37.0348 25.4488 38.467 25.8865 38.1245C26.1053 37.9689 25.949 37.533 25.8865 37.3462C25.7771 36.9726 25.6051 36.5834 25.4175 36.2409C24.9642 35.4158 24.4796 34.5907 24.0888 33.719C23.9169 33.3454 23.3385 32.1155 23.9481 31.8509C24.5578 31.5862 25.1205 32.5825 25.355 32.9873C25.5426 33.2986 25.7145 33.6256 25.8552 33.968C26.0584 34.4662 26.3085 34.9332 26.5274 35.4314C26.7306 35.914 26.9182 36.3966 27.0901 36.8791C27.1214 36.957 27.1527 37.0348 27.2152 37.0815C27.5122 37.2216 27.3246 36.3032 27.2934 36.1942C27.1527 35.5404 26.9182 34.9021 26.7619 34.2483C26.5743 33.4076 26.4023 32.5514 26.2929 31.6952C26.246 31.3683 26.2148 30.9947 26.3242 30.6833C26.4649 30.3097 26.9807 30.2007 27.2934 30.4498C27.4966 30.6211 27.5591 30.9013 27.5904 31.1503C27.6216 31.4617 27.6529 31.7575 27.7154 32.0688C27.8561 32.7694 28.0906 33.4543 28.2938 34.1549C28.3876 34.5129 28.4814 34.871 28.5595 35.229C28.6221 35.5871 28.6221 35.9607 28.7315 36.3187C28.7471 36.381 28.7784 36.4588 28.8409 36.5055C28.9191 36.5522 29.0129 36.5522 29.091 36.5055C29.4037 36.3187 29.2161 35.8984 29.1848 35.6182C29.1223 35.0889 29.1379 34.5596 29.1223 34.0303C29.1067 33.3298 29.0754 32.6293 29.0598 31.9287C29.0441 31.4928 29.1379 30.9013 29.6694 30.8546C30.1696 30.8079 30.3572 31.3216 30.4354 31.7263C30.5292 32.2868 30.451 32.8783 30.4979 33.4543C30.5448 34.0615 30.5604 34.6841 30.6073 35.2913C30.6542 35.8828 30.8574 36.4588 30.92 37.0348C30.9825 37.6731 30.9043 38.3113 31.342 38.8406C31.4827 39.0119 31.6859 39.1676 31.9204 39.1987C32.5613 39.2765 33.1397 38.6538 33.468 38.1868C33.7962 37.7042 34.187 37.2528 34.6873 36.9258C34.9686 36.739 35.2969 36.5522 35.6408 36.5055C35.9534 36.4588 36.3755 36.5834 36.4693 36.9258C36.5944 37.3462 36.0941 37.7665 35.8128 38.0156C35.3907 38.3736 35.0155 38.7784 34.7185 39.152C34.953 39.4166 35.1562 39.7591 35.2656 39.9615C35.4532 40.2728 35.6252 40.5998 35.7659 40.9422C35.9691 41.4404 36.2192 41.9074 36.438 42.4056C36.6413 42.8882 36.8288 43.3708 37.0008 43.8533C37.0321 43.9312 37.0633 44.009 37.1258 44.0557C37.4228 44.1958 37.2353 43.2773 37.204 43.1684C37.0633 42.5145 36.8288 41.8763 36.6725 41.2225C36.4849 40.3818 36.313 39.5256 36.2036 38.6694C36.1567 38.3425 36.1254 37.9689 36.2348 37.6575C36.3755 37.2839 36.8914 37.1749 37.204 37.424C37.4072 37.5952 37.4697 37.8755 37.501 38.1245C37.5323 38.4359 37.5635 38.7317 37.6261 39.043C37.7668 39.7435 38.0012 40.4285 38.2044 41.129C38.2982 41.4871 38.392 41.8451 38.4702 42.2032C38.5327 42.5612 38.5327 42.9349 38.6421 43.2929C38.6578 43.3552 38.689 43.433 38.7516 43.4797C38.8297 43.5264 38.9235 43.5264 39.0017 43.4797C39.3143 43.2929 39.1267 42.8726 39.0955 42.5924C39.0329 42.0631 39.0486 41.5338 39.0329 41.0045C39.0173 40.304 38.986 39.6034 38.9704 38.9029C38.9548 38.467 39.0486 37.8755 39.5801 37.8288C40.0803 37.7821 40.2679 38.2958 40.346 38.7005C40.4398 39.261 40.3617 39.8525 40.4085 40.4285C40.4554 41.0356 40.4711 41.6583 40.518 42.2655C40.5649 42.857 40.7681 43.433 40.8306 44.009C40.8931 44.6473 40.815 45.2855 41.2527 45.8148C41.3934 45.9861 41.5966 46.1417 41.8311 46.1729C42.472 46.2507 43.0503 45.628 43.3786 45.161C43.7069 44.6784 44.0977 44.227 44.5979 43.9C44.8793 43.7132 45.2076 43.5264 45.5515 43.4797C45.8641 43.433 46.2862 43.5576 46.3799 43.9C46.505 44.3204 46.0048 44.7407 45.7234 44.9898C44.5666 45.9705 43.7538 47.3249 43.7538 47.3249C43.7538 47.3249 42.5032 49.9869 41.9248 50.7186C41.6122 51.1233 41.1276 51.4035 40.9088 51.8861C40.6899 52.3843 40.643 53.007 40.5961 53.5985C40.6743 53.7231 40.7525 53.8632 40.815 54.0033C41.0807 54.517 41.5809 55.202 42.2219 55.2175C42.4563 55.2175 42.6752 55.1086 42.8315 54.9529C43.3474 54.4859 43.3317 53.8476 43.488 53.2249C43.6287 52.6489 43.9101 52.1041 44.0195 51.5281C44.1446 50.9209 44.2384 50.3138 44.3634 49.7222C44.4885 49.1618 44.4729 48.5547 44.6448 48.0098C44.7699 47.6206 45.0356 47.1381 45.5202 47.247C46.036 47.3716 46.0517 47.9631 45.9892 48.3834C45.8797 49.0684 45.7547 49.7689 45.6609 50.4539C45.5827 50.9832 45.5358 51.4969 45.3951 52.0262C45.317 52.2909 45.0825 52.6956 45.3795 52.9136C45.442 52.9758 45.5515 52.9914 45.6296 52.9447C45.6921 52.9136 45.7234 52.8513 45.7547 52.7735C45.911 52.4465 45.9579 52.0729 46.0673 51.7149C46.1767 51.3568 46.3174 51.0143 46.4737 50.6874C46.7551 50.0336 47.0834 49.3798 47.3179 48.6948C47.4273 48.399 47.4742 48.1032 47.568 47.8075C47.6305 47.5584 47.7243 47.2937 47.9588 47.1536C48.3027 46.9512 48.7873 47.1225 48.8811 47.5117C48.9592 47.8386 48.8654 48.1966 48.7873 48.5236C48.5684 49.3486 48.287 50.1893 47.9744 50.9832C47.7399 51.6059 47.4117 52.1975 47.1928 52.8357C47.1615 52.9447 46.8489 53.832 47.1615 53.7231C47.2397 53.6919 47.2866 53.6141 47.3179 53.5518C47.5523 53.0848 47.8025 52.6334 48.0682 52.1819C48.3496 51.7149 48.6622 51.279 48.928 50.8275C49.053 50.594 49.2093 50.3761 49.3656 50.1581C49.2719 49.3331 49.1624 48.5236 49.0686 47.6985C49.0061 47.1848 48.9436 46.6555 48.8811 46.1417C48.7873 45.3478 48.8342 44.3671 48.5059 43.6354C48.287 43.1528 47.8025 42.8726 47.4898 42.4678C46.9114 41.7206 45.6609 39.0742 45.6609 39.0742C45.6609 39.0742 44.848 37.7198 43.6913 36.739C43.4099 36.5055 42.9097 36.0696 43.0347 35.6493C43.1285 35.3068 43.5506 35.1823 43.8632 35.229C44.2071 35.2757 44.5354 35.4625 44.8168 35.6493C45.317 35.9762 45.7078 36.4277 46.036 36.9103C46.3643 37.3929 46.9427 38 47.5836 37.9222C47.8181 37.891 48.0057 37.7509 48.162 37.5641C48.5997 37.0348 48.5215 36.3966 48.584 35.7583C48.6466 35.1667 48.8498 34.5907 48.8967 34.0147C48.9436 33.4076 48.9592 32.7849 49.0061 32.1778C49.053 31.6018 48.9748 31.0102 49.0686 30.4498C49.1312 30.0451 49.3344 29.5313 49.8346 29.578C50.3661 29.6247 50.4599 30.2163 50.4443 30.6522C50.4286 31.3527 50.3974 32.0533 50.3817 32.7538C50.3817 33.2831 50.3974 33.8124 50.3192 34.3417C50.2879 34.6219 50.1003 35.0422 50.413 35.229C50.4911 35.2757 50.6006 35.2757 50.6631 35.229C50.7256 35.1823 50.7413 35.12 50.7725 35.0422C50.8819 34.6997 50.8819 34.3105 50.9445 33.9525C51.007 33.5944 51.1008 33.2364 51.2102 32.8783C51.4134 32.1934 51.6479 31.4928 51.7886 30.7923C51.8511 30.481 51.8668 30.1852 51.9137 29.8738C51.9449 29.6247 52.0074 29.3445 52.2107 29.1733C52.5233 28.9242 53.0392 29.0332 53.1798 29.4068C53.2893 29.7181 53.258 30.0918 53.2111 30.4187C53.1017 31.2749 52.9297 32.1311 52.7421 32.9717C52.5858 33.6256 52.3513 34.2483 52.2107 34.9177C52.195 35.0266 52.0074 35.9451 52.2888 35.805C52.367 35.7739 52.3982 35.6805 52.4139 35.6026C52.5858 35.1045 52.7734 34.6219 52.9766 34.1549C53.1955 33.6567 53.4456 33.1897 53.6488 32.6915C53.7895 32.349 53.9614 32.0221 54.149 31.7108C54.3835 31.306 54.9462 30.3097 55.5559 30.5744C56.1499 30.839 55.5715 32.0688 55.4152 32.4424C55.0244 33.2986 54.5398 34.1393 54.0865 34.9644C53.8989 35.3068 53.727 35.696 53.6175 36.0696C53.555 36.2565 53.4143 36.6923 53.6175 36.848C54.0709 37.1749 54.9931 35.7583 55.5872 34.9955C55.8529 34.6686 56.1186 34.2638 56.4938 34.0459C56.7595 33.8746 57.2129 33.8902 57.3223 34.2638C57.3692 34.4506 57.2754 34.6686 57.1816 34.8398C56.8533 35.4158 56.3375 35.8984 55.8685 36.3654C55.2276 37.0037 54.8525 37.8755 54.5086 38.685C54.321 39.1364 54.2115 39.5723 54.1646 40.0549C54.1021 40.5375 54.0709 41.0201 53.8989 41.4715C53.6801 42.0631 53.1798 42.4834 53.0548 43.1061C52.9454 43.7288 53.1173 44.3671 53.2111 44.9898C53.3362 45.7993 53.4612 46.5932 53.5863 47.4027C53.7582 48.4924 53.9302 49.5821 54.0865 50.6719C54.2741 51.9328 54.4773 53.1782 54.6649 54.4392C54.8681 55.7313 55.0713 57.0389 55.2745 58.331C55.4621 59.5453 55.6497 60.7751 55.8373 61.9894C55.9936 63.0168 56.1499 64.0287 56.3062 65.0561C56.3688 65.4297 56.4156 65.8034 56.4782 66.1614C56.9471 65.7411 57.4317 65.3208 57.9163 64.8849C57.9319 63.7485 57.9476 62.5965 57.9476 61.4601C57.9632 60.1524 57.9788 58.8603 57.9945 57.5526C57.9945 57.0234 58.0101 56.5096 58.0101 55.9803C58.0257 55.1864 58.1977 54.2057 57.9788 53.4428C57.8225 52.9447 57.3848 52.6022 57.1191 52.1508C56.6501 51.3413 55.7591 48.5391 55.7591 48.5391C55.7591 48.5391 55.1338 47.0914 54.1178 45.9549C53.8676 45.6747 53.4299 45.1921 53.6175 44.7874C53.7582 44.4605 54.1959 44.3982 54.4929 44.476C54.8368 44.5694 55.1338 44.7874 55.3839 45.0209C55.8373 45.4101 56.1655 45.9082 56.4313 46.4375C56.697 46.9512 57.1972 47.6362 57.8382 47.6518C58.0726 47.6518 58.2915 47.5428 58.4478 47.3871C58.9637 46.9201 58.948 46.2818 59.1043 45.6592C59.245 45.0832 59.5264 44.5383 59.6358 43.9623C59.7609 43.3552 59.8547 42.7481 59.9797 42.1565C60.1048 41.5961 60.0892 40.9889 60.2611 40.4441C60.3862 40.0549 60.6519 39.5723 61.1365 39.6813C61.6523 39.8058 61.668 40.3974 61.6054 40.8177C61.496 41.5027 61.371 42.2032 61.2772 42.8882C61.199 43.4175 61.1521 43.9312 61.0114 44.4605C60.9333 44.7251 60.6988 45.1299 60.9958 45.3478C61.0583 45.4101 61.1678 45.4256 61.2459 45.3789C61.3084 45.3478 61.3397 45.2855 61.371 45.2077C61.5273 44.8808 61.5742 44.5072 61.6836 44.1491C61.793 43.7911 61.9337 43.4486 62.09 43.1217C62.3714 42.4678 62.6997 41.814 62.9342 41.129C63.0436 40.8333 63.0905 40.5375 63.1843 40.2417C63.2468 39.9926 63.3406 39.728 63.5751 39.5879C63.622 39.5567 63.6689 39.5412 63.7158 39.5256C63.2155 39.2921 62.559 39.0275 61.8712 38.8562C61.5117 38.7784 60.8707 38.6227 60.7926 38.1868C60.7301 37.8443 61.0427 37.5485 61.3397 37.4396C61.668 37.315 62.0431 37.3462 62.387 37.3773C62.9811 37.4396 63.5282 37.6575 64.044 37.9533C64.5443 38.2335 65.3571 38.5137 65.8886 38.1557C66.0762 38.0311 66.1856 37.8132 66.2481 37.5797C66.4044 36.8947 66.0293 36.381 65.7948 35.7739C65.576 35.229 65.4978 34.6219 65.2633 34.077C65.0288 33.5166 64.7475 32.9562 64.513 32.3957C64.2941 31.8664 63.9502 31.3683 63.7783 30.8234C63.6532 30.4342 63.5907 29.8894 64.0597 29.7026C64.5599 29.5002 64.9038 29.9984 65.0914 30.3875C65.404 31.0102 65.6854 31.6641 65.998 32.2868C66.2325 32.7694 66.4982 33.2208 66.6702 33.719C66.764 33.9836 66.7952 34.4351 67.1548 34.4662C67.2486 34.4662 67.3424 34.4351 67.3736 34.3572C67.4049 34.295 67.4049 34.2171 67.3893 34.1549C67.3267 33.7968 67.1548 33.4543 67.0454 33.1118C66.9359 32.7538 66.8578 32.3957 66.7796 32.0377C66.6389 31.3372 66.5295 30.6055 66.3419 29.9205C66.2638 29.6247 66.1387 29.3445 66.0293 29.0488C65.9355 28.8152 65.873 28.535 65.9668 28.3015C66.1231 27.9435 66.6389 27.8034 66.9359 28.0836C67.1861 28.3171 67.3267 28.6596 67.4362 28.9709C67.7332 29.7804 67.9677 30.6211 68.1865 31.4461C68.3584 32.1 68.421 32.7694 68.6086 33.4076C68.6398 33.5166 68.8899 34.4195 69.0931 34.1549C69.14 34.0926 69.1244 33.9992 69.1244 33.9213C69.0462 33.4076 68.9994 32.8939 68.9681 32.3646C68.9368 31.8353 68.9525 31.2905 68.9056 30.7612C68.8743 30.4031 68.8743 30.0295 68.9056 29.6714C68.9368 29.2044 68.9681 28.0524 69.6403 28.0213C70.2968 27.9746 70.3437 29.3445 70.3593 29.7493C70.4062 30.6989 70.3593 31.6485 70.3281 32.5981C70.3124 32.9873 70.3437 33.4076 70.4219 33.7968C70.4531 33.9992 70.5156 34.4506 70.7814 34.4973C71.3285 34.5907 71.5161 32.8939 71.688 31.9443C71.7662 31.524 71.8287 31.0569 72.0476 30.6833C72.2039 30.4187 72.626 30.2163 72.8761 30.4965C73.0168 30.6366 73.0168 30.8857 73.0168 31.0725C72.9855 31.7419 72.751 32.4113 72.5322 33.034C72.2508 33.8902 72.3133 34.8398 72.3759 35.7272C72.4071 36.2098 72.5165 36.6456 72.6885 37.0971C72.8604 37.5485 73.048 38 73.0949 38.4826C73.1574 39.1053 72.9073 39.7124 73.0949 40.3195C73.2825 40.9267 73.7202 41.4248 74.0797 41.923C74.5643 42.5768 75.0333 43.2462 75.5179 43.9C75.5335 43.9312 76.1432 44.585 76.9091 45.4256C82.8493 38.0156 87.1793 30.4342 87.1793 24.0672C87.1637 10.7415 76.3776 0 63.0749 0C55.0557 0 47.9744 3.89185 43.5818 9.88529C39.2049 3.89185 32.108 0 24.1044 0C10.786 0 0 10.7415 0 24.0049C0 32.5203 7.7847 43.2462 16.7731 52.789C16.6949 52.3998 16.4917 52.0262 16.4135 51.637Z" fill="#3B261E"/>
</svg>
